<svg xmlns="http://www.w3.org/2000/svg" xmlns:xlink="http://www.w3.org/1999/xlink" width="500" zoomAndPan="magnify" viewBox="0 0 375 374.999991" height="500" preserveAspectRatio="xMidYMid meet" version="1.0"><defs><g/></defs><g fill="#000000" fill-opacity="1"><g transform="translate(73.268493, 173.749997)"><g><path d="M 1.21875 0 L 1.21875 -14.203125 L 5.125 -14.203125 L 5.125 0 Z M 1.21875 0 "/></g></g></g><g fill="#000000" fill-opacity="1"><g transform="translate(79.60599, 173.749997)"><g><path d="M 5.125 -6.984375 L 5.125 0 L 1.21875 0 L 1.21875 -14.203125 L 4.265625 -14.203125 L 9.953125 -6.984375 L 9.953125 -14.203125 L 13.859375 -14.203125 L 13.859375 0 L 10.765625 0 Z M 5.125 -6.984375 "/></g></g></g><g fill="#000000" fill-opacity="1"><g transform="translate(94.680044, 173.749997)"><g><path d="M 9.8125 -9.5625 C 9.414062 -9.800781 9.003906 -10.015625 8.578125 -10.203125 C 8.222656 -10.359375 7.820312 -10.503906 7.375 -10.640625 C 6.925781 -10.785156 6.488281 -10.859375 6.0625 -10.859375 C 5.71875 -10.859375 5.441406 -10.804688 5.234375 -10.703125 C 5.023438 -10.597656 4.921875 -10.414062 4.921875 -10.15625 C 4.921875 -9.96875 4.976562 -9.8125 5.09375 -9.6875 C 5.21875 -9.570312 5.390625 -9.460938 5.609375 -9.359375 C 5.835938 -9.265625 6.113281 -9.171875 6.4375 -9.078125 C 6.769531 -8.984375 7.144531 -8.867188 7.5625 -8.734375 C 8.21875 -8.535156 8.804688 -8.316406 9.328125 -8.078125 C 9.859375 -7.835938 10.304688 -7.550781 10.671875 -7.21875 C 11.046875 -6.894531 11.332031 -6.5 11.53125 -6.03125 C 11.738281 -5.570312 11.84375 -5.007812 11.84375 -4.34375 C 11.84375 -3.488281 11.6875 -2.769531 11.375 -2.1875 C 11.0625 -1.601562 10.644531 -1.140625 10.125 -0.796875 C 9.613281 -0.453125 9.035156 -0.203125 8.390625 -0.046875 C 7.742188 0.109375 7.09375 0.1875 6.4375 0.1875 C 5.914062 0.1875 5.378906 0.144531 4.828125 0.0625 C 4.285156 -0.0195312 3.742188 -0.132812 3.203125 -0.28125 C 2.671875 -0.425781 2.15625 -0.597656 1.65625 -0.796875 C 1.15625 -0.992188 0.691406 -1.222656 0.265625 -1.484375 L 1.9375 -4.90625 C 2.40625 -4.601562 2.894531 -4.34375 3.40625 -4.125 C 3.832031 -3.914062 4.3125 -3.734375 4.84375 -3.578125 C 5.382812 -3.421875 5.9375 -3.34375 6.5 -3.34375 C 6.925781 -3.34375 7.222656 -3.398438 7.390625 -3.515625 C 7.554688 -3.628906 7.640625 -3.773438 7.640625 -3.953125 C 7.640625 -4.160156 7.554688 -4.332031 7.390625 -4.46875 C 7.222656 -4.613281 6.992188 -4.738281 6.703125 -4.84375 C 6.410156 -4.945312 6.070312 -5.050781 5.6875 -5.15625 C 5.3125 -5.257812 4.910156 -5.390625 4.484375 -5.546875 C 3.859375 -5.753906 3.316406 -5.976562 2.859375 -6.21875 C 2.410156 -6.46875 2.035156 -6.75 1.734375 -7.0625 C 1.441406 -7.382812 1.222656 -7.742188 1.078125 -8.140625 C 0.941406 -8.535156 0.875 -8.992188 0.875 -9.515625 C 0.875 -10.304688 1.015625 -11 1.296875 -11.59375 C 1.585938 -12.195312 1.976562 -12.695312 2.46875 -13.09375 C 2.96875 -13.5 3.535156 -13.800781 4.171875 -14 C 4.804688 -14.207031 5.476562 -14.3125 6.1875 -14.3125 C 6.695312 -14.3125 7.195312 -14.257812 7.6875 -14.15625 C 8.1875 -14.0625 8.664062 -13.9375 9.125 -13.78125 C 9.582031 -13.632812 10.007812 -13.46875 10.40625 -13.28125 C 10.8125 -13.101562 11.175781 -12.9375 11.5 -12.78125 Z M 9.8125 -9.5625 "/></g></g></g><g fill="#000000" fill-opacity="1"><g transform="translate(107.015172, 173.749997)"><g><path d="M 1.21875 0 L 1.21875 -14.203125 L 5.125 -14.203125 L 5.125 0 Z M 1.21875 0 "/></g></g></g><g fill="#000000" fill-opacity="1"><g transform="translate(113.35267, 173.749997)"><g><path d="M 10.0625 -1.15625 C 9.164062 -0.320312 8.128906 0.09375 6.953125 0.09375 C 6.078125 0.09375 5.242188 -0.0976562 4.453125 -0.484375 C 3.671875 -0.878906 2.984375 -1.410156 2.390625 -2.078125 C 1.796875 -2.742188 1.320312 -3.519531 0.96875 -4.40625 C 0.625 -5.289062 0.453125 -6.226562 0.453125 -7.21875 C 0.453125 -8.21875 0.628906 -9.144531 0.984375 -10 C 1.335938 -10.863281 1.820312 -11.613281 2.4375 -12.25 C 3.0625 -12.882812 3.796875 -13.382812 4.640625 -13.75 C 5.484375 -14.113281 6.382812 -14.296875 7.34375 -14.296875 C 7.9375 -14.296875 8.503906 -14.222656 9.046875 -14.078125 C 9.597656 -13.941406 10.109375 -13.738281 10.578125 -13.46875 C 11.046875 -13.195312 11.460938 -12.867188 11.828125 -12.484375 C 12.191406 -12.109375 12.492188 -11.679688 12.734375 -11.203125 L 9.84375 -8.984375 C 9.601562 -9.535156 9.238281 -9.984375 8.75 -10.328125 C 8.257812 -10.671875 7.742188 -10.84375 7.203125 -10.84375 C 6.796875 -10.84375 6.421875 -10.75 6.078125 -10.5625 C 5.742188 -10.375 5.453125 -10.113281 5.203125 -9.78125 C 4.960938 -9.445312 4.769531 -9.050781 4.625 -8.59375 C 4.488281 -8.132812 4.421875 -7.628906 4.421875 -7.078125 C 4.421875 -6.515625 4.488281 -6.003906 4.625 -5.546875 C 4.769531 -5.097656 4.96875 -4.710938 5.21875 -4.390625 C 5.46875 -4.066406 5.769531 -3.8125 6.125 -3.625 C 6.476562 -3.445312 6.867188 -3.359375 7.296875 -3.359375 C 7.773438 -3.359375 8.238281 -3.476562 8.6875 -3.71875 C 9.132812 -3.957031 9.550781 -4.304688 9.9375 -4.765625 L 7.4375 -4.765625 L 7.4375 -7.5625 L 13.28125 -7.5625 L 13.28125 0 L 10.0625 0 Z M 10.0625 -1.15625 "/></g></g></g><g fill="#000000" fill-opacity="1"><g transform="translate(127.327152, 173.749997)"><g><path d="M 13.78125 -14.203125 L 13.78125 0 L 9.875 0 L 9.875 -5.5625 L 5.125 -5.5625 L 5.125 0 L 1.21875 0 L 1.21875 -14.203125 L 5.125 -14.203125 L 5.125 -8.953125 L 9.875 -8.953125 L 9.875 -14.203125 Z M 13.78125 -14.203125 "/></g></g></g><g fill="#000000" fill-opacity="1"><g transform="translate(142.321235, 173.749997)"><g><path d="M 12.28125 -10.796875 L 8.203125 -10.796875 L 8.203125 0 L 4.296875 0 L 4.296875 -10.796875 L 0.203125 -10.796875 L 0.203125 -14.203125 L 12.28125 -14.203125 Z M 12.28125 -10.796875 "/></g></g></g><g fill="#000000" fill-opacity="1"><g transform="translate(154.80755, 173.749997)"><g/></g></g><g fill="#000000" fill-opacity="1"><g transform="translate(206.908497, 219.999977)"><g><path d="M 0.679688 -0.199219 C 0.679688 0 0.769531 0.0898438 1.320312 0.0898438 C 1.871094 0.0898438 1.980469 0 1.980469 -0.199219 L 1.980469 -2.109375 C 2.429688 -2.019531 3.109375 -1.941406 3.9375 -1.941406 C 6.007812 -1.941406 6.878906 -2.667969 6.878906 -4.148438 C 6.878906 -5.628906 5.957031 -6.386719 3.777344 -6.386719 C 2.28125 -6.386719 1.390625 -6.097656 1.019531 -5.976562 C 0.808594 -5.917969 0.679688 -5.730469 0.679688 -5.507812 Z M 1.980469 -5.230469 C 2.390625 -5.328125 2.980469 -5.417969 3.738281 -5.417969 C 5.089844 -5.417969 5.578125 -4.988281 5.578125 -4.160156 C 5.578125 -3.328125 5.089844 -2.898438 3.738281 -2.898438 C 2.988281 -2.898438 2.359375 -3.007812 1.980469 -3.097656 Z M 1.980469 -5.230469 "/></g></g></g><g fill="#000000" fill-opacity="1"><g transform="translate(220.385779, 219.999977)"><g><path d="M 0.679688 -0.199219 C 0.679688 0 0.769531 0.0898438 1.320312 0.0898438 C 1.871094 0.0898438 1.980469 0 1.980469 -0.199219 L 1.980469 -2.21875 L 3.777344 -2.21875 C 5.039062 -2.21875 5.578125 -1.460938 5.578125 -0.199219 C 5.578125 0 5.6875 0.0898438 6.238281 0.0898438 C 6.789062 0.0898438 6.878906 0 6.878906 -0.199219 C 6.878906 -1.300781 6.4375 -2.179688 5.480469 -2.628906 C 6.457031 -2.871094 6.878906 -3.429688 6.878906 -4.417969 C 6.878906 -5.828125 5.957031 -6.386719 3.800781 -6.386719 C 2.300781 -6.386719 1.398438 -6.097656 1.019531 -5.976562 C 0.808594 -5.917969 0.679688 -5.730469 0.679688 -5.507812 Z M 1.980469 -5.230469 C 2.390625 -5.328125 2.988281 -5.417969 3.757812 -5.417969 C 5.089844 -5.417969 5.578125 -5.128906 5.578125 -4.320312 C 5.578125 -3.507812 5.089844 -3.199219 3.738281 -3.199219 L 1.980469 -3.199219 Z M 1.980469 -5.230469 "/></g></g></g><g fill="#000000" fill-opacity="1"><g transform="translate(233.933031, 219.999977)"><g><path d="M 0.679688 -0.5 C 0.679688 -0.230469 0.898438 0 1.167969 0 L 6.628906 0 C 6.808594 0 6.878906 -0.078125 6.878906 -0.5 C 6.878906 -0.917969 6.808594 -0.988281 6.628906 -0.988281 L 1.980469 -0.988281 L 1.980469 -2.660156 L 5.730469 -2.660156 C 5.910156 -2.660156 5.976562 -2.730469 5.976562 -3.148438 C 5.976562 -3.570312 5.910156 -3.640625 5.730469 -3.640625 L 1.980469 -3.640625 L 1.980469 -5.308594 L 6.628906 -5.308594 C 6.808594 -5.308594 6.878906 -5.378906 6.878906 -5.796875 C 6.878906 -6.21875 6.808594 -6.296875 6.628906 -6.296875 L 1.167969 -6.296875 C 0.898438 -6.296875 0.679688 -6.070312 0.679688 -5.796875 Z M 0.679688 -0.5 "/></g></g></g><g fill="#000000" fill-opacity="1"><g transform="translate(247.410314, 219.999977)"><g><path d="M 3.75 -6.386719 C 1.449219 -6.386719 0.601562 -5.777344 0.601562 -4.597656 C 0.601562 -3.507812 1.238281 -2.929688 2.550781 -2.757812 L 4.5 -2.5 C 5.289062 -2.390625 5.507812 -2.109375 5.507812 -1.730469 C 5.507812 -1.101562 5.097656 -0.878906 3.910156 -0.878906 C 2.558594 -0.878906 1.667969 -1.03125 0.789062 -1.339844 C 0.761719 -1.351562 0.730469 -1.359375 0.710938 -1.359375 C 0.609375 -1.359375 0.539062 -1.257812 0.449219 -0.949219 C 0.410156 -0.789062 0.378906 -0.679688 0.378906 -0.609375 C 0.378906 -0.488281 0.429688 -0.449219 0.519531 -0.417969 C 1.5 -0.0703125 2.359375 0.0898438 3.867188 0.0898438 C 6.097656 0.0898438 6.808594 -0.609375 6.808594 -1.78125 C 6.808594 -2.75 6.289062 -3.347656 4.988281 -3.519531 L 2.988281 -3.789062 C 2.25 -3.898438 1.910156 -4.089844 1.910156 -4.609375 C 1.910156 -5.148438 2.339844 -5.417969 3.617188 -5.417969 C 4.558594 -5.417969 5.648438 -5.289062 6.179688 -5.058594 C 6.207031 -5.046875 6.238281 -5.039062 6.257812 -5.039062 C 6.359375 -5.039062 6.429688 -5.140625 6.519531 -5.449219 C 6.558594 -5.609375 6.589844 -5.71875 6.589844 -5.789062 C 6.589844 -5.910156 6.539062 -5.949219 6.449219 -5.976562 C 5.789062 -6.238281 4.808594 -6.386719 3.75 -6.386719 Z M 3.75 -6.386719 "/></g></g></g><g fill="#000000" fill-opacity="1"><g transform="translate(260.867603, 219.999977)"><g><path d="M 3.75 -6.386719 C 1.449219 -6.386719 0.601562 -5.777344 0.601562 -4.597656 C 0.601562 -3.507812 1.238281 -2.929688 2.550781 -2.757812 L 4.5 -2.5 C 5.289062 -2.390625 5.507812 -2.109375 5.507812 -1.730469 C 5.507812 -1.101562 5.097656 -0.878906 3.910156 -0.878906 C 2.558594 -0.878906 1.667969 -1.03125 0.789062 -1.339844 C 0.761719 -1.351562 0.730469 -1.359375 0.710938 -1.359375 C 0.609375 -1.359375 0.539062 -1.257812 0.449219 -0.949219 C 0.410156 -0.789062 0.378906 -0.679688 0.378906 -0.609375 C 0.378906 -0.488281 0.429688 -0.449219 0.519531 -0.417969 C 1.5 -0.0703125 2.359375 0.0898438 3.867188 0.0898438 C 6.097656 0.0898438 6.808594 -0.609375 6.808594 -1.78125 C 6.808594 -2.75 6.289062 -3.347656 4.988281 -3.519531 L 2.988281 -3.789062 C 2.25 -3.898438 1.910156 -4.089844 1.910156 -4.609375 C 1.910156 -5.148438 2.339844 -5.417969 3.617188 -5.417969 C 4.558594 -5.417969 5.648438 -5.289062 6.179688 -5.058594 C 6.207031 -5.046875 6.238281 -5.039062 6.257812 -5.039062 C 6.359375 -5.039062 6.429688 -5.140625 6.519531 -5.449219 C 6.558594 -5.609375 6.589844 -5.71875 6.589844 -5.789062 C 6.589844 -5.910156 6.539062 -5.949219 6.449219 -5.976562 C 5.789062 -6.238281 4.808594 -6.386719 3.75 -6.386719 Z M 3.75 -6.386719 "/></g></g></g><g fill="#000000" fill-opacity="1"><g transform="translate(148.005052, 221.640873)"><g><path d="M 60.730469 0 L 60.730469 -1.996094 L 55.027344 -1.996094 L 35.828125 -35.734375 L 50.179688 -60.347656 L 57.214844 -60.347656 L 57.214844 -62.34375 L 41.339844 -62.34375 L 41.339844 -60.347656 L 47.804688 -60.347656 L 34.59375 -37.921875 L 21.953125 -60.347656 L 28.132812 -60.347656 L 28.132812 -62.34375 L 2.851562 -62.34375 L 2.851562 -60.347656 L 9.027344 -60.347656 L 27.847656 -26.707031 L 13.402344 -1.996094 L 6.746094 -1.996094 L 6.746094 0 L 22.621094 0 L 22.621094 -1.996094 L 15.871094 -1.996094 L 29.082031 -24.519531 L 41.625 -1.996094 L 35.257812 -1.996094 L 35.257812 0 Z M 60.730469 0 "/></g></g></g></svg>